#N canvas 827 239 527 327 12;
#N canvas 0 50 450 250 (subpatch) 0;
#X text 0 0 plugdatainfo <?xml version="1.0" encoding="UTF-8"?> <PlugDataInfo/>
;
#X coords 0 1 100 -1 1 1 1;
#X restore 0 0 graph;
#X obj 748 761 dac~;
#X obj 25 53 bng 25 250 50 0 empty empty empty 17 7 0 10 #e4e4e4 #828282
#5a5a5a;
#X obj 25 21 receive note0;
#X obj 227 21 receive note1;
#X obj 434 21 receive note2;
#X obj 617 21 receive note3;
#X obj 183 379 +~;
#X obj 348 496 +~;
#X obj 25 104 trigger b b b;
#X obj 151 178 mtof;
#X obj 151 224 osc~;
#X obj 75 326 *~;
#X obj 25 198 delay 100;
#X obj 25 253 0;
#X obj 151 152 62;
#X obj 227 53 bng 25 250 50 0 empty empty empty 17 7 0 10 #e4e4e4 #828282
#5a5a5a;
#X obj 434 53 bng 25 250 50 0 empty empty empty 17 7 0 10 #e4e4e4 #828282
#5a5a5a;
#X obj 626 55 bng 25 250 50 0 empty empty empty 17 7 0 10 #e4e4e4 #828282
#5a5a5a;
#X obj 227 104 trigger b b b;
#X obj 353 178 mtof;
#X obj 353 224 osc~;
#X obj 277 326 *~;
#X obj 227 198 delay 100;
#X obj 227 253 0;
#X obj 353 152 65;
#X obj 592 379 +~;
#X obj 434 104 trigger b b b;
#X obj 560 178 mtof;
#X obj 560 224 osc~;
#X obj 484 326 *~;
#X obj 434 198 delay 100;
#X obj 434 253 0;
#X obj 636 104 trigger b b b;
#X obj 762 178 mtof;
#X obj 762 224 osc~;
#X obj 686 326 *~;
#X obj 636 198 delay 100;
#X obj 636 253 0;
#X obj 560 152 67;
#X obj 762 152 69;
#X obj 831 53 bng 25 250 50 0 empty empty empty 17 7 0 10 #e4e4e4 #828282
#5a5a5a;
#X obj 1023 55 bng 25 250 50 0 empty empty empty 17 7 0 10 #e4e4e4
#828282 #5a5a5a;
#X obj 989 379 +~;
#X obj 831 104 trigger b b b;
#X obj 957 178 mtof;
#X obj 957 224 osc~;
#X obj 881 326 *~;
#X obj 831 198 delay 100;
#X obj 831 253 0;
#X obj 1033 104 trigger b b b;
#X obj 1159 178 mtof;
#X obj 1159 224 osc~;
#X obj 1083 326 *~;
#X obj 1033 198 delay 100;
#X obj 1033 253 0;
#X obj 831 21 receive note4;
#X obj 1014 21 receive note5;
#X obj 748 628 +~;
#X obj 957 152 72;
#X obj 1159 152 74;
#X obj 100 152 0.2;
#X obj 302 152 0.2;
#X obj 509 152 0.2;
#X obj 711 152 0.2;
#X obj 906 152 0.2;
#X obj 1108 152 0.2;
#X connect 2 0 9 0;
#X connect 3 0 2 0;
#X connect 4 0 16 0;
#X connect 5 0 17 0;
#X connect 6 0 18 0;
#X connect 7 0 8 0;
#X connect 8 0 58 0;
#X connect 9 0 13 0;
#X connect 9 1 61 0;
#X connect 9 2 15 0;
#X connect 10 0 11 0;
#X connect 11 0 12 0;
#X connect 12 0 7 0;
#X connect 13 0 14 0;
#X connect 14 0 12 1;
#X connect 15 0 10 0;
#X connect 16 0 19 0;
#X connect 17 0 27 0;
#X connect 18 0 33 0;
#X connect 19 0 23 0;
#X connect 19 1 62 0;
#X connect 19 2 25 0;
#X connect 20 0 21 0;
#X connect 21 0 22 0;
#X connect 22 0 7 1;
#X connect 23 0 24 0;
#X connect 24 0 22 1;
#X connect 25 0 20 0;
#X connect 26 0 8 1;
#X connect 27 0 31 0;
#X connect 27 1 63 0;
#X connect 27 2 39 0;
#X connect 28 0 29 0;
#X connect 29 0 30 0;
#X connect 30 0 26 0;
#X connect 31 0 32 0;
#X connect 32 0 30 1;
#X connect 33 0 37 0;
#X connect 33 1 64 0;
#X connect 33 2 40 0;
#X connect 34 0 35 0;
#X connect 35 0 36 0;
#X connect 36 0 26 1;
#X connect 37 0 38 0;
#X connect 38 0 36 1;
#X connect 39 0 28 0;
#X connect 40 0 34 0;
#X connect 41 0 44 0;
#X connect 42 0 50 0;
#X connect 43 0 58 1;
#X connect 44 0 48 0;
#X connect 44 1 65 0;
#X connect 44 2 59 0;
#X connect 45 0 46 0;
#X connect 46 0 47 0;
#X connect 47 0 43 0;
#X connect 48 0 49 0;
#X connect 49 0 47 1;
#X connect 50 0 54 0;
#X connect 50 1 66 0;
#X connect 50 2 60 0;
#X connect 51 0 52 0;
#X connect 52 0 53 0;
#X connect 53 0 43 1;
#X connect 54 0 55 0;
#X connect 55 0 53 1;
#X connect 56 0 41 0;
#X connect 57 0 42 0;
#X connect 58 0 1 0;
#X connect 58 0 1 1;
#X connect 59 0 45 0;
#X connect 60 0 51 0;
#X connect 61 0 12 1;
#X connect 62 0 22 1;
#X connect 63 0 30 1;
#X connect 64 0 36 1;
#X connect 65 0 47 1;
#X connect 66 0 53 1;
